# Blender 4.2.2 LTS
# www.blender.org
mtllib long.mtl
o Long
v 1.500000 0.500000 -0.500000
v 1.500000 -0.500000 -0.500000
v 1.500000 0.500000 0.500000
v 1.500000 -0.500000 0.500000
v -1.500000 0.500000 -0.500000
v -1.500000 -0.500000 -0.500000
v -1.500000 0.500000 0.500000
v -1.500000 -0.500000 0.500000
vn -0.0000 1.0000 -0.0000
vn -0.0000 -0.0000 1.0000
vn -1.0000 -0.0000 -0.0000
vn -0.0000 -1.0000 -0.0000
vn 1.0000 -0.0000 -0.0000
vn -0.0000 -0.0000 -1.0000
vt 1.000000 3.000000
vt 1.000000 0.000000
vt 0.000001 0.000000
vt 0.000000 3.000000
vt 3.000000 0.000000
vt 3.000000 1.000000
vt 0.000000 1.000000
vt 0.000000 0.000000
vt 1.000001 0.000000
vt 1.000001 1.000000
vt 0.000000 0.000000
vt 0.000000 3.000000
vt 0.999999 0.000000
vt 0.999999 1.000000
vt 3.000000 0.000000
s 0
usemtl Material
f 1/1/1 5/2/1 7/3/1 3/4/1
f 4/5/2 3/6/2 7/7/2 8/8/2
f 8/9/3 7/10/3 5/7/3 6/11/3
f 6/2/4 2/1/4 4/12/4 8/3/4
f 2/13/5 1/14/5 3/7/5 4/8/5
f 6/11/6 5/7/6 1/6/6 2/15/6
